<svg width="13" height="13" viewBox="0 0 13 13" fill="none" xmlns="http://www.w3.org/2000/svg">
<path fill-rule="evenodd" clip-rule="evenodd" d="M0.21967 11.0314C-0.0732233 11.3243 -0.0732233 11.7991 0.21967 12.092C0.512563 12.3849 0.987437 12.3849 1.28033 12.092L6.14974 7.22261L11.0314 12.1042C11.3243 12.3971 11.7991 12.3971 12.092 12.1042C12.3849 11.8113 12.3849 11.3365 12.092 11.0436L7.2104 6.16195L12.092 1.28033C12.3849 0.987437 12.3849 0.512563 12.092 0.21967C11.7991 -0.0732235 11.3243 -0.0732232 11.0314 0.21967L6.14974 5.10129L1.28035 0.231895C0.987454 -0.0609978 0.512581 -0.0609978 0.219687 0.231895C-0.0732057 0.524789 -0.0732057 0.999662 0.219687 1.29256L5.08908 6.16195L0.21967 11.0314Z" fill="#666666"/>
</svg>
