<svg xmlns="http://www.w3.org/2000/svg" viewBox="0 0 512 512"><defs><linearGradient id="a" x1="0%" x2="0%" y1="100%" y2="0%"><stop offset="0%" stop-color="#F26522"/><stop offset="18%" stop-color="#F6375A"/><stop offset="99%" stop-color="#FA0891"/></linearGradient></defs><g fill="url(#a)"><circle cx="53.333" cy="53.333" r="10.667"/><circle cx="96" cy="53.333" r="10.667"/><circle cx="138.667" cy="53.333" r="10.667"/><path d="M188.167 301.146L134 256l54.167-45.146c4.521-3.771 5.135-10.5 1.365-15.021-3.781-4.5-10.479-5.146-15.031-1.354l-64 53.333c-2.427 2.021-3.833 5.021-3.833 8.188s1.406 6.167 3.833 8.188l64 53.333c2 1.667 4.417 2.479 6.823 2.479a10.69 10.69 0 008.208-3.833c3.77-4.521 3.156-11.25-1.365-15.021zm91.635 15.021A10.689 10.689 0 00288.01 320c2.406 0 4.823-.813 6.823-2.479l64-53.333c2.427-2.021 3.833-5.021 3.833-8.188s-1.406-6.167-3.833-8.188l-64-53.333c-4.531-3.792-11.24-3.146-15.031 1.354-3.771 4.521-3.156 11.25 1.365 15.021L335.333 256l-54.167 45.146c-4.52 3.771-5.135 10.5-1.364 15.021zm-8.937-144.646c-5.385-2.292-11.688.188-14 5.604l-64 149.333c-2.323 5.417.188 11.688 5.604 14.021 1.365.583 2.792.854 4.198.854 4.135 0 8.073-2.417 9.802-6.458l64-149.333c2.323-5.417-.188-11.688-5.604-14.021z"/><path d="M503.927 362.979l-20.438-5.104 10.833-18.042a10.681 10.681 0 00-1.604-13.042l-23.385-23.385V42.667C469.333 19.146 450.198 0 426.667 0h-384C19.135 0 0 19.146 0 42.667v384c0 23.521 19.135 42.667 42.667 42.667h260.74l23.375 23.375c3.448 3.458 8.813 4.104 13.031 1.604l18.063-10.833 5.115 20.438a10.663 10.663 0 0010.344 8.083H416c4.896 0 9.156-3.333 10.344-8.083l5.115-20.438 18.063 10.833a10.667 10.667 0 0013.031-1.604l30.167-30.167a10.681 10.681 0 001.604-13.042l-10.833-18.042 20.438-5.104A10.676 10.676 0 00512.002 416v-42.667a10.681 10.681 0 00-8.075-10.354zM21.333 42.667c0-11.771 9.573-21.333 21.333-21.333h384c11.76 0 21.333 9.563 21.333 21.333v42.667H21.333V42.667zM295.911 448H42.667c-11.76 0-21.333-9.563-21.333-21.333v-320H448v189.267l-16.542 9.921-5.115-20.438a10.663 10.663 0 00-10.344-8.083h-42.667a10.663 10.663 0 00-10.344 8.083l-5.115 20.438-18.063-10.833c-4.208-2.521-9.583-1.875-13.031 1.604l-30.167 30.167a10.681 10.681 0 00-1.604 13.042l10.833 18.042-20.438 5.104a10.676 10.676 0 00-8.073 10.354V416c0 4.896 3.333 9.167 8.073 10.354l20.438 5.104-9.93 16.542zm194.756-40.333l-18.323 4.583a10.681 10.681 0 00-7.479 6.833c-.948 2.729-1.99 5.396-3.25 7.979a10.708 10.708 0 00.448 10.167l9.677 16.125-18.385 18.375-16.135-9.667a10.602 10.602 0 00-10.156-.458c-2.594 1.271-5.271 2.313-8.01 3.271a10.649 10.649 0 00-6.792 7.479l-4.583 18.313h-26.021l-4.583-18.313a10.647 10.647 0 00-6.792-7.479c-2.74-.958-5.417-2-8.01-3.271-3.24-1.563-7.063-1.417-10.156.458l-16.135 9.667-18.385-18.375 9.677-16.125a10.708 10.708 0 00.448-10.167c-1.26-2.583-2.302-5.25-3.25-7.979a10.68 10.68 0 00-7.479-6.833l-18.323-4.583v-26l18.323-4.583a10.681 10.681 0 007.479-6.833c.948-2.729 1.99-5.396 3.25-7.979a10.708 10.708 0 00-.448-10.167l-9.677-16.125 18.385-18.375 16.135 9.667c3.094 1.854 6.896 2 10.156.458 2.594-1.271 5.271-2.313 8.01-3.271 3.375-1.188 5.927-4 6.792-7.479l4.583-18.313h26.021l4.583 18.313a10.647 10.647 0 006.792 7.479c2.74.958 5.417 2 8.01 3.271 3.24 1.542 7.063 1.417 10.156-.458l16.135-9.667 18.385 18.375-9.677 16.125a10.708 10.708 0 00-.448 10.167c1.26 2.583 2.302 5.25 3.25 7.979a10.68 10.68 0 007.479 6.833l18.323 4.583v26z"/><path d="M394.667 341.333c-29.406 0-53.333 23.917-53.333 53.333S365.26 448 394.667 448 448 424.083 448 394.667s-23.927-53.334-53.333-53.334zm0 85.334c-17.646 0-32-14.354-32-32s14.354-32 32-32 32 14.354 32 32-14.354 32-32 32z"/></g></svg>