<svg version="1.1" xmlns="http://www.w3.org/2000/svg" xmlns:xlink="http://www.w3.org/1999/xlink" x="0px" y="0px" viewBox="0 0 512 512">
	<defs>
		<linearGradient id="grad_0" x1="0%" x2="0%" y1="100%" y2="0%">
			<stop offset="0%" stop-color="rgb(242,101,34)" stop-opacity="1"/>
			<stop offset="18%" stop-color="rgb(246,55,90)" stop-opacity="1"/>
			<stop offset="99%" stop-color="rgb(250,8,145)" stop-opacity="1"/>
		</linearGradient>
	</defs>
	<g>
		<g>
			<g>
				<circle fill="url(#grad_0)" cx="53.333" cy="53.333" r="10.667"/>
				<circle fill="url(#grad_0)" cx="96" cy="53.333" r="10.667"/>
				<circle fill="url(#grad_0)" cx="138.667" cy="53.333" r="10.667"/>
				<path fill="url(#grad_0)" d="M188.167,301.146L134,256l54.167-45.146c4.521-3.771,5.135-10.5,1.365-15.021c-3.781-4.5-10.479-5.146-15.031-1.354
					l-64,53.333c-2.427,2.021-3.833,5.021-3.833,8.188s1.406,6.167,3.833,8.188l64,53.333c2,1.667,4.417,2.479,6.823,2.479
					c3.063,0,6.094-1.313,8.208-3.833C193.302,311.646,192.688,304.917,188.167,301.146z"/>
				<path fill="url(#grad_0)" d="M279.802,316.167c2.115,2.521,5.146,3.833,8.208,3.833c2.406,0,4.823-0.813,6.823-2.479l64-53.333
					c2.427-2.021,3.833-5.021,3.833-8.188s-1.406-6.167-3.833-8.188l-64-53.333c-4.531-3.792-11.24-3.146-15.031,1.354
					c-3.771,4.521-3.156,11.25,1.365,15.021L335.333,256l-54.167,45.146C276.646,304.917,276.031,311.646,279.802,316.167z"/>
				<path fill="url(#grad_0)" d="M270.865,171.521c-5.385-2.292-11.688,0.188-14,5.604l-64,149.333c-2.323,5.417,0.188,11.688,5.604,14.021
					c1.365,0.583,2.792,0.854,4.198,0.854c4.135,0,8.073-2.417,9.802-6.458l64-149.333
					C278.792,180.125,276.281,173.854,270.865,171.521z"/>
				<path fill="url(#grad_0)" d="M503.927,362.979l-20.438-5.104l10.833-18.042c2.521-4.208,1.854-9.583-1.604-13.042l-23.385-23.385V42.667
					C469.333,19.146,450.198,0,426.667,0h-384C19.135,0,0,19.146,0,42.667v384c0,23.521,19.135,42.667,42.667,42.667h260.74
					l23.375,23.375c3.448,3.458,8.813,4.104,13.031,1.604l18.063-10.833l5.115,20.438c1.188,4.75,5.448,8.083,10.344,8.083H416
					c4.896,0,9.156-3.333,10.344-8.083l5.115-20.438l18.063,10.833c4.198,2.521,9.573,1.854,13.031-1.604l30.167-30.167
					c3.458-3.458,4.125-8.833,1.604-13.042l-10.833-18.042l20.438-5.104c4.74-1.188,8.073-5.458,8.073-10.354v-42.667
					C512,368.438,508.667,364.167,503.927,362.979z M21.333,42.667c0-11.771,9.573-21.333,21.333-21.333h384
					c11.76,0,21.333,9.563,21.333,21.333v42.667H21.333V42.667z M295.911,448H42.667c-11.76,0-21.333-9.563-21.333-21.333v-320H448
					v189.267l-16.542,9.921l-5.115-20.438c-1.188-4.75-5.448-8.083-10.344-8.083h-42.667c-4.896,0-9.156,3.333-10.344,8.083
					l-5.115,20.438l-18.063-10.833c-4.208-2.521-9.583-1.875-13.031,1.604l-30.167,30.167c-3.458,3.458-4.125,8.833-1.604,13.042
					l10.833,18.042l-20.438,5.104c-4.74,1.188-8.073,5.458-8.073,10.354V416c0,4.896,3.333,9.167,8.073,10.354l20.438,5.104
					L295.911,448z M490.667,407.667l-18.323,4.583c-3.479,0.875-6.292,3.438-7.479,6.833c-0.948,2.729-1.99,5.396-3.25,7.979
					c-1.573,3.25-1.406,7.063,0.448,10.167l9.677,16.125l-18.385,18.375l-16.135-9.667c-3.094-1.875-6.927-2.042-10.156-0.458
					c-2.594,1.271-5.271,2.313-8.01,3.271c-3.375,1.188-5.927,4-6.792,7.479l-4.583,18.313h-26.021l-4.583-18.313
					c-0.865-3.479-3.417-6.292-6.792-7.479c-2.74-0.958-5.417-2-8.01-3.271c-3.24-1.563-7.063-1.417-10.156,0.458l-16.135,9.667
					l-18.385-18.375l9.677-16.125c1.854-3.104,2.021-6.917,0.448-10.167c-1.26-2.583-2.302-5.25-3.25-7.979
					c-1.188-3.396-4-5.958-7.479-6.833l-18.323-4.583v-26l18.323-4.583c3.479-0.875,6.292-3.438,7.479-6.833
					c0.948-2.729,1.99-5.396,3.25-7.979c1.573-3.25,1.406-7.063-0.448-10.167l-9.677-16.125l18.385-18.375l16.135,9.667
					c3.094,1.854,6.896,2,10.156,0.458c2.594-1.271,5.271-2.313,8.01-3.271c3.375-1.188,5.927-4,6.792-7.479l4.583-18.313h26.021
					l4.583,18.313c0.865,3.479,3.417,6.292,6.792,7.479c2.74,0.958,5.417,2,8.01,3.271c3.24,1.542,7.063,1.417,10.156-0.458
					l16.135-9.667l18.385,18.375l-9.677,16.125c-1.854,3.104-2.021,6.917-0.448,10.167c1.26,2.583,2.302,5.25,3.25,7.979
					c1.188,3.396,4,5.958,7.479,6.833l18.323,4.583V407.667z"/>
				<path fill="url(#grad_0)" d="M394.667,341.333c-29.406,0-53.333,23.917-53.333,53.333S365.26,448,394.667,448S448,424.083,448,394.667
					S424.073,341.333,394.667,341.333z M394.667,426.667c-17.646,0-32-14.354-32-32s14.354-32,32-32s32,14.354,32,32
					S412.313,426.667,394.667,426.667z"/>
			</g>
		</g>
	</g>
</svg>
