<svg xmlns="http://www.w3.org/2000/svg" viewBox="0 0 512 512"><defs><linearGradient id="a" x1="0%" x2="0%" y1="100%" y2="0%"><stop offset="0%" stop-color="#F26522"/><stop offset="18%" stop-color="#F6375A"/><stop offset="99%" stop-color="#FA0891"/></linearGradient></defs><path fill="url(#a)" d="M268.064 256.75l138.593-138.593a8 8 0 10-11.314-11.313L256.75 245.436 118.157 106.843a8 8 0 00-11.313 0 7.998 7.998 0 000 11.313L245.436 256.75 106.843 395.343a7.999 7.999 0 000 11.314c1.562 1.562 3.609 2.343 5.657 2.343s4.095-.781 5.657-2.343L256.75 268.064l138.593 138.593c1.563 1.562 3.609 2.343 5.657 2.343s4.095-.781 5.657-2.343a8 8 0 000-11.314L268.064 256.75z"/></svg>