<svg xmlns="http://www.w3.org/2000/svg" xmlns:xlink="http://www.w3.org/1999/xlink" viewBox="0 0 920 764">
    <defs>
        <linearGradient id="grad_2" x1="0%" x2="22.495%" y1="97.437%" y2="0%">
            <stop offset="0%" stop-color="rgb(255,143,90)" stop-opacity="1" />
            <stop offset="99%" stop-color="rgb(255,47,150)" stop-opacity="1" />
        </linearGradient>
    </defs>
    <path fill-rule="evenodd" fill="rgb(96, 85, 196)" d="M395.520,40.407 C502.261,-10.049 602.994,-10.204 687.212,27.671 C771.647,65.238 839.568,140.836 885.703,234.785 C929.973,329.669 929.926,431.584 893.771,514.027 C857.115,597.700 796.105,660.782 712.966,705.804 C668.936,728.473 622.654,744.002 563.818,753.535 C505.757,762.929 435.142,766.325 360.325,761.479 C211.851,752.158 45.449,708.398 10.358,609.690 C-9.529,560.677 2.954,504.492 27.679,447.950 C52.809,391.326 90.181,334.346 129.419,281.835 C169.063,229.242 210.573,181.118 253.309,140.306 C296.450,99.410 340.817,65.827 395.520,40.407 L395.520,40.407 Z"/>
    <path fill="url(#grad_2)" d="M395.520,40.407 C502.261,-10.049 602.994,-10.204 687.212,27.671 C771.647,65.238 839.568,140.836 885.703,234.785 C929.973,329.669 929.926,431.584 893.771,514.027 C857.115,597.700 796.105,660.782 712.966,705.804 C668.936,728.473 622.654,744.002 563.818,753.535 C505.757,762.929 435.142,766.325 360.325,761.479 C211.851,752.158 45.449,708.398 10.358,609.690 C-9.529,560.677 2.954,504.492 27.679,447.950 C52.809,391.326 90.181,334.346 129.419,281.835 C169.063,229.242 210.573,181.118 253.309,140.306 C296.450,99.410 340.817,65.827 395.520,40.407 L395.520,40.407 Z"/>
</svg>