<svg xmlns="http://www.w3.org/2000/svg" xmlns:xlink="http://www.w3.org/1999/xlink" viewBox="0 0 919 630">
    <defs>
        <linearGradient id="PSgrad_0" x1="0%" x2="22.495%" y1="97.437%" y2="0%">
        <stop offset="0%" stop-color="rgb(255,143,90)" stop-opacity="1" />
        <stop offset="99%" stop-color="rgb(255,47,150)" stop-opacity="1" />
    </linearGradient>
    </defs>
    <path fill-rule="evenodd"  fill="rgb(96, 85, 196)"
    d="M394.819,32.771 C501.505,-8.891 602.187,-9.019 686.362,22.255 C770.754,53.275 838.641,115.698 884.752,193.274 C928.999,271.621 928.952,355.775 892.815,423.850 C856.178,492.940 795.199,545.029 712.103,582.204 C668.095,600.922 621.837,613.746 563.031,621.617 C505.000,629.373 434.420,632.178 359.641,628.177 C211.243,620.480 44.927,584.346 9.853,502.841 C-10.023,462.369 2.453,415.976 27.165,369.289 C52.282,322.533 89.635,275.483 128.853,232.124 C168.477,188.696 209.966,148.959 252.680,115.260 C295.800,81.492 340.143,53.761 394.819,32.771 L394.819,32.771 Z"/>
    <path fill="url(#PSgrad_0)"
    d="M394.819,32.771 C501.505,-8.891 602.187,-9.019 686.362,22.255 C770.754,53.275 838.641,115.698 884.752,193.274 C928.999,271.621 928.952,355.775 892.815,423.850 C856.178,492.940 795.199,545.029 712.103,582.204 C668.095,600.922 621.837,613.746 563.031,621.617 C505.000,629.373 434.420,632.178 359.641,628.177 C211.243,620.480 44.927,584.346 9.853,502.841 C-10.023,462.369 2.453,415.976 27.165,369.289 C52.282,322.533 89.635,275.483 128.853,232.124 C168.477,188.696 209.966,148.959 252.680,115.260 C295.800,81.492 340.143,53.761 394.819,32.771 L394.819,32.771 Z"/>
</svg>