<svg version="1.1" xmlns="http://www.w3.org/2000/svg" xmlns:xlink="http://www.w3.org/1999/xlink" x="0px" y="0px" viewBox="0 0 512 512">
	<defs>
		<linearGradient id="grad_0" x1="0%" x2="0%" y1="100%" y2="0%">
			<stop offset="0%" stop-color="rgb(242,101,34)" stop-opacity="1"/>
			<stop offset="18%" stop-color="rgb(246,55,90)" stop-opacity="1"/>
			<stop offset="99%" stop-color="rgb(250,8,145)" stop-opacity="1"/>
		</linearGradient>
	</defs>
	<g>
		<g>
			<path fill="url(#grad_0)" d="M458.667,0H53.333C23.893,0.035,0.035,23.893,0,53.333v405.333C0.035,488.107,23.893,511.965,53.333,512h405.333
				c29.441-0.035,53.298-23.893,53.333-53.333V53.333C511.965,23.893,488.107,0.035,458.667,0z M490.667,458.667
				c0,17.673-14.327,32-32,32H53.333c-17.673,0-32-14.327-32-32V53.333c0-17.673,14.327-32,32-32h405.333c17.673,0,32,14.327,32,32
				V458.667z"/>
		</g>
	</g>
	<g>
		<g>
			<rect fill="url(#grad_0)" x="42.667" y="85.333" width="160" height="21.333"/>
		</g>
	</g>
	<g>
		<g>
			<rect fill="url(#grad_0)" x="53.333" y="42.667" width="21.333" height="21.333"/>
		</g>
	</g>
	<g>
		<g>
			<rect fill="url(#grad_0)" x="96" y="42.667" width="21.333" height="21.333"/>
		</g>
	</g>
	<g>
		<g>
			<rect fill="url(#grad_0)" x="437.333" y="42.667" width="21.333" height="21.333"/>
		</g>
	</g>
	<g>
		<g>
			<path fill="url(#grad_0)" d="M448,170.667H64c-11.782,0-21.333,9.551-21.333,21.333v234.667C42.667,438.449,52.218,448,64,448h384
				c11.782,0,21.333-9.551,21.333-21.333V192C469.333,180.218,459.782,170.667,448,170.667z M448,426.667H64V192h384V426.667z"/>
		</g>
	</g>
	<g>
		<g>
			<path fill="url(#grad_0)" d="M263.541,88.459c-4.165-4.164-10.917-4.164-15.083,0l-85.333,85.333l15.083,15.083L256,111.083l77.461,77.461
				l15.083-15.083L263.541,88.459z"/>
		</g>
	</g>
	<g>
		<g>
			<rect fill="url(#grad_0)" x="309.333" y="85.333" width="149.333" height="21.333"/>
		</g>
	</g>
	<g>
		<g>
			<path fill="url(#grad_0)" d="M224,352v-21.333h-21.333V352c0.062,0.634,0.062,1.273,0,1.907c-0.527,5.365-5.302,9.287-10.667,8.76h-21.333
				c-0.634,0.062-1.273,0.062-1.907,0c-5.365-0.527-9.286-5.302-8.76-10.667v-85.333c-0.062-0.634-0.062-1.273,0-1.907
				c0.526-5.365,5.302-9.286,10.667-8.76H192c0.634-0.062,1.273-0.062,1.907,0c5.365,0.526,9.286,5.302,8.76,10.667V288H224v-21.333
				c0.018-0.606,0.018-1.213,0-1.819c-0.502-17.171-14.829-30.684-32-30.181h-21.333c-0.606-0.018-1.213-0.018-1.819,0
				c-17.171,0.502-30.684,14.829-30.181,32V352c-0.018,0.606-0.018,1.213,0,1.819c0.502,17.171,14.829,30.684,32,30.181H192
				c0.606,0.018,1.213,0.018,1.819,0C210.99,383.498,224.502,369.171,224,352z"/>
		</g>
	</g>
	<g>
		<g>
			<rect fill="url(#grad_0)" x="266.667" y="234.667" width="21.333" height="149.333"/>
		</g>
	</g>
	<g>
		<g>
			<rect fill="url(#grad_0)" x="320" y="234.667" width="21.333" height="149.333"/>
		</g>
	</g>
	<g>
		<g>
			<rect fill="url(#grad_0)" x="245.333" y="266.667" width="117.333" height="21.333"/>
		</g>
	</g>
	<g>
		<g>
			<rect fill="url(#grad_0)" x="245.333" y="330.667" width="117.333" height="21.333"/>
		</g>
	</g>
</svg>
