<svg xmlns="http://www.w3.org/2000/svg" viewBox="0 0 512 512"><defs><linearGradient id="a" x1="0%" x2="0%" y1="100%" y2="0%"><stop offset="0%" stop-color="#F26522"/><stop offset="18%" stop-color="#F6375A"/><stop offset="99%" stop-color="#FA0891"/></linearGradient></defs><path fill="url(#a)" d="M458.667 0H53.333C23.893.035.035 23.893 0 53.333v405.333C.035 488.107 23.893 511.965 53.333 512h405.333c29.441-.035 53.298-23.893 53.333-53.333V53.333C511.965 23.893 488.107.035 458.667 0zm32 458.667c0 17.673-14.327 32-32 32H53.333c-17.673 0-32-14.327-32-32V53.333c0-17.673 14.327-32 32-32h405.333c17.673 0 32 14.327 32 32v405.334z"/><path fill="url(#a)" d="M42.667 85.333h160v21.333h-160zm10.666-42.666h21.333V64H53.333zm42.667 0h21.333V64H96zm341.333 0h21.333V64h-21.333zm10.667 128H64c-11.782 0-21.333 9.551-21.333 21.333v234.667C42.667 438.449 52.218 448 64 448h384c11.782 0 21.333-9.551 21.333-21.333V192c0-11.782-9.551-21.333-21.333-21.333zm0 256H64V192h384v234.667z"/><path fill="url(#a)" d="M263.541 88.459c-4.165-4.164-10.917-4.164-15.083 0l-85.333 85.333 15.083 15.083L256 111.083l77.461 77.461 15.083-15.083-85.003-85.002zm45.792-3.126h149.333v21.333H309.333zM224 352v-21.333h-21.333V352a9.8 9.8 0 010 1.907c-.527 5.365-5.302 9.287-10.667 8.76h-21.333a9.8 9.8 0 01-1.907 0c-5.365-.527-9.286-5.302-8.76-10.667v-85.333a9.8 9.8 0 010-1.907c.526-5.365 5.302-9.286 10.667-8.76H192a9.8 9.8 0 011.907 0c5.365.526 9.286 5.302 8.76 10.667V288H224v-21.333c.018-.606.018-1.213 0-1.819-.502-17.171-14.829-30.684-32-30.181h-21.333a30.643 30.643 0 00-1.819 0c-17.171.502-30.684 14.829-30.181 32V352a30.643 30.643 0 000 1.819c.502 17.171 14.829 30.684 32 30.181H192c.606.018 1.213.018 1.819 0 17.171-.502 30.683-14.829 30.181-32zm42.667-117.333H288V384h-21.333zm53.333 0h21.333V384H320z"/><path fill="url(#a)" d="M245.333 266.667h117.333V288H245.333zm0 64h117.333V352H245.333z"/></svg>